# xmcd
#
# Track frame offsets: 
#        150
#        14615
#        27692
#        45955
#        62130
#        80569
#        96094
#        114792
#        136422
#        165089
#
# Disc length: 2554 seconds
#
# Revision: 0
# Processed by: cddbd v1.5.2PL0 Copyright (c) Steve Scherf et al.
# Submitted via: ExactAudioCopy v0.99pb5
#
DISCID=7509f80a
DTITLE=Connor O'Brien - Prizefighter
DYEAR=2007
DGENRE=Rock
TTITLE0=Make Ends Meet
TTITLE1=Bobby and Me
TTITLE2=So Far To Go
TTITLE3=Blue Room
TTITLE4=Feeling Again
TTITLE5=Customize
TTITLE6=Falling To Pieces
TTITLE7=Nothing At All
TTITLE8=Reconcile
TTITLE9=Inside Out (acoustic)
EXTD=
EXTT0=
EXTT1=
EXTT2=
EXTT3=
EXTT4=
EXTT5=
EXTT6=
EXTT7=
EXTT8=
EXTT9=
PLAYORDER=
